<svg width="112" height="112" viewBox="0 0 112 112" fill="none" xmlns="http://www.w3.org/2000/svg">
<g id="draw_24dp_FILL0_wght200_GRAD0_opsz24 1">
<path id="Vector" d="M23.3333 93.3334V81.6668L84.9963 20.0306C85.5104 19.5165 86.0517 19.1606 86.6203 18.9631C87.1889 18.7655 87.7574 18.6667 88.326 18.6667C88.9124 18.6667 89.5 18.7655 90.0888 18.9631C90.6783 19.1606 91.1913 19.5165 91.6276 20.0306L96.6361 25.0391C97.1502 25.4754 97.5061 25.9884 97.7036 26.5779C97.9012 27.1667 98 27.7543 98 28.3407C98 28.9093 97.9012 29.4779 97.7036 30.0464C97.5061 30.615 97.1502 31.1563 96.6361 31.6704L35 93.3334H23.3333ZM28 88.6668H33.0073L82.2675 39.4334L79.8093 36.8574L77.2333 34.3992L28 83.6594V88.6668ZM79.8093 36.8574L77.2333 34.3992L82.2675 39.4334L79.8093 36.8574ZM66.5898 93.3334C71.7472 93.3334 76.5364 92.1038 80.9573 89.6444C85.379 87.1859 87.5898 83.7489 87.5898 79.3334C87.5898 76.6532 86.6864 74.272 84.8796 72.1899C83.0728 70.1078 80.4463 68.3878 77 67.0298L73.437 70.5928C76.4229 71.6093 78.7503 72.8685 80.4195 74.3704C82.0886 75.8723 82.9231 77.5266 82.9231 79.3334C82.9231 81.96 81.3092 84.172 78.0815 85.9694C74.8537 87.7676 71.0231 88.6668 66.5898 88.6668C65.9256 88.6668 65.3706 88.8896 64.925 89.3353C64.4793 89.7809 64.2565 90.3359 64.2565 91.0001C64.2565 91.6643 64.4793 92.2193 64.925 92.6649C65.3706 93.1106 65.9256 93.3334 66.5898 93.3334ZM26.1963 63.1074L29.6065 59.6074C27.5127 58.6865 25.9435 57.731 24.899 56.7409C23.8552 55.7508 23.3333 54.7261 23.3333 53.6668C23.3333 52.2551 24.1978 50.873 25.9268 49.5204C27.6558 48.1686 30.9256 46.4606 35.7361 44.3964C41.8627 41.7994 45.9938 39.4599 48.1296 37.3777C50.2654 35.2964 51.3333 32.9483 51.3333 30.3334C51.3333 26.9532 49.8166 24.1637 46.7833 21.9649C43.75 19.7661 39.8222 18.6667 35 18.6667C32.0981 18.6667 29.3416 19.1991 26.7306 20.2639C24.1188 21.3287 22.2234 22.6361 21.0443 24.1862C20.608 24.7182 20.4228 25.2926 20.489 25.9094C20.5543 26.5254 20.8533 27.0426 21.3861 27.4611C21.9181 27.8383 22.4773 27.9939 23.0638 27.9277C23.6502 27.8624 24.162 27.6112 24.5991 27.1741C25.8669 25.9063 27.3715 24.9492 29.113 24.3029C30.8536 23.6566 32.816 23.3334 35 23.3334C38.6672 23.3334 41.5286 24.0245 43.5843 25.4066C45.6392 26.7887 46.6666 28.431 46.6666 30.3334C46.6666 31.9605 45.8064 33.4309 44.086 34.7446C42.3663 36.0575 38.9666 37.8417 33.887 40.0972C28.084 42.6398 24.0963 44.8849 21.924 46.8324C19.7524 48.78 18.6666 51.0581 18.6666 53.6668C18.6666 55.5575 19.313 57.2881 20.6056 58.8584C21.8975 60.4288 23.7611 61.8451 26.1963 63.1074Z" fill="#7B84EB"/>
</g>
</svg>
