<svg width="110" height="50" viewBox="0 0 110 50" fill="none" xmlns="http://www.w3.org/2000/svg">
<path d="M103.679 12.5034C100.295 12.5034 97.5293 9.72852 97.5293 6.33333V0L96.3904 0V6.33333C96.3904 9.72852 93.6245 12.5034 90.2404 12.5034L83.9277 12.5034V13.6297L90.2404 13.6297C93.6245 13.6297 96.3904 16.4046 96.3904 19.7998V26.1332H97.5293V19.7998C97.5293 16.4046 100.295 13.6297 103.679 13.6297H109.992V12.5034H103.679Z" fill="black"/>
<path d="M0 32.1725L0 14.6416H2.41606L2.41606 25.17H3.88034C4.00237 24.8761 4.1976 24.6068 4.44165 24.362L8.27318 20.1751H11.2261L6.07676 25.8066C5.93034 25.929 5.85712 26.0269 5.85712 26.1493C5.85712 26.2718 5.93034 26.3697 6.07676 26.4921L11.2017 32.1725H8.22437L4.41725 27.9857C4.1732 27.6919 3.97796 27.398 3.85594 27.0797H2.41606L2.41606 32.1725H0V32.1725Z" fill="black"/>
<path d="M16.4732 14.666L16.4732 32.1725H14.0571L14.0571 14.666H16.4732Z" fill="black"/>
<path d="M19.6458 26.1494C19.6458 22.7216 22.3791 19.8813 26.0154 19.8813C29.6517 19.8813 32.385 22.5746 32.385 26.1494V32.1726H30.091V30.0669C29.188 31.536 27.6017 32.4664 25.6493 32.4664C22.1838 32.4664 19.6458 29.6262 19.6458 26.1494V26.1494ZM29.9689 26.1739C29.9689 23.9703 28.2606 22.1584 26.0154 22.1584C23.7701 22.1584 22.0618 23.9703 22.0618 26.1739C22.0618 28.3775 23.7945 30.1649 26.0154 30.1649C28.2362 30.1649 29.9689 28.353 29.9689 26.1739Z" fill="black"/>
<path d="M35.0939 26.1494C35.0939 22.7216 37.8272 19.8813 41.4635 19.8813C45.0998 19.8813 47.8331 22.5746 47.8331 26.1494V32.1726H45.5391V30.0669C44.6361 31.536 43.0498 32.4664 41.0974 32.4664C37.632 32.4664 35.0939 29.6262 35.0939 26.1494V26.1494ZM45.4171 26.1739C45.4171 23.9703 43.7087 22.1584 41.4635 22.1584C39.2183 22.1584 37.5099 23.9703 37.5099 26.1739C37.5099 28.3775 39.2427 30.1649 41.4635 30.1649C43.6843 30.1649 45.4171 28.353 45.4171 26.1739Z" fill="black"/>
<path d="M51.2986 32.1724V25.023C51.2986 22.1093 52.9581 19.9302 56.0819 19.9302C56.8384 19.9302 57.6194 20.0771 58.2295 20.3709V22.7704C57.6438 22.4276 56.9605 22.2562 56.3015 22.2562C54.6908 22.2562 53.7146 23.358 53.7146 25.1209V32.1724H51.2986V32.1724Z" fill="black"/>
<path d="M59.7427 16.2088C59.7427 15.3273 60.4504 14.5928 61.329 14.5928C62.2075 14.5928 62.8909 15.3273 62.8909 16.2088C62.8909 17.0902 62.2075 17.8002 61.329 17.8002C60.4504 17.8002 59.7427 17.0902 59.7427 16.2088ZM62.5492 20.1752V32.1727H60.1331V20.1752H62.5492V20.1752Z" fill="black"/>
<path d="M67.3569 27.8636V22.2811H64.9896V20.1755H67.3569V17.0659H69.7729V20.1755H74.361V22.2811H69.7729V27.7901C69.7729 29.3572 70.7003 30.2876 72.1402 30.2876C72.9211 30.2876 73.7753 29.9938 74.361 29.5775V31.8056C73.7509 32.2218 72.7991 32.4912 71.9206 32.4912C68.9432 32.4912 67.3569 30.6059 67.3569 27.8636Z" fill="black"/>
<path d="M77.2164 34.7926L79.2176 33.6908C79.9009 34.9884 81.2432 35.7475 82.8783 35.7475C85.4164 35.7475 86.7343 33.8377 86.7343 31.2423V30.1895C86.0265 31.5361 84.7575 32.3441 82.9515 32.3441C79.2908 32.3441 77.5093 29.9201 77.5093 26.3944V20.1753H79.9009V26.2719C79.9009 28.5245 81.0724 30.067 83.2444 30.067C85.4164 30.067 86.7098 28.3042 86.7098 26.1006V20.1753L89.1503 20.1753V31.2178C89.1503 35.2333 86.8075 38 82.9271 38C80.389 38 78.2902 36.9227 77.2164 34.7926V34.7926Z" fill="black"/>
</svg>
