<svg width="112" height="112" viewBox="0 0 112 112" fill="none" xmlns="http://www.w3.org/2000/svg">
<g id="moving_24dp_FILL0_wght200_GRAD0_opsz24 1">
<path id="Vector" d="M15.4175 80.7694L12.1158 77.4666L35.2333 54.3491C37.5371 52.1052 40.2893 50.9685 43.4898 50.9389C46.6904 50.9086 49.4426 52.0453 51.7463 54.3491L57.113 59.7158C58.5247 61.1274 60.1864 61.8185 62.0982 61.7889C64.01 61.7586 65.6717 61.0675 67.0833 59.7158L91.889 34.9999H76.5508V30.3333H99.8842V53.6666H95.2175V38.3296L70.3862 63.0443C68.0824 65.2881 65.3151 66.4252 62.0842 66.4556C58.8541 66.4851 56.1171 65.378 53.8732 63.1341L48.3898 57.6507C46.9961 56.257 45.3538 55.5752 43.463 55.6056C41.5722 55.6351 39.93 56.3169 38.5362 57.6507L15.4175 80.7694Z" fill="#7B84EB"/>
</g>
</svg>
