<svg width="57" height="68" viewBox="0 0 57 68" fill="none" xmlns="http://www.w3.org/2000/svg">
<g id="Group">
<path id="Vector" d="M0.813662 54.2904C2.82602 51.0104 11.7934 48.4004 12.1111 48.2946C16.6183 46.731 21.1726 45.2967 25.6328 43.6155C28.6219 42.4868 31.4109 40.935 33.6822 38.5954C35.9299 36.2676 36.2947 33.881 34.7649 31.0359C34.2824 30.1424 33.7057 29.296 33.2115 28.4142C32.6231 27.3444 32.8231 26.8741 34.0353 26.7095C36.2359 26.3921 38.4248 26.6272 40.5784 27.1563C49.5575 29.39 55.7476 36.7732 56.3948 45.9903C57.2421 58.029 47.4275 68.4571 35.3415 67.9986C25.5739 67.6224 16.077 65.612 6.99196 61.944C5.13259 61.1915 3.3909 60.0512 1.75512 58.852C0.201716 57.7234 -0.139561 56.1715 0.472385 54.8195C0.542994 54.6549 0.672444 54.5021 0.813662 54.2904Z" fill="#87185A"/>
<path id="Vector_2" d="M55.8179 13.7193C53.8055 16.9994 44.8381 19.6094 44.5204 19.7152C40.0132 21.2788 35.4589 22.7131 30.9988 24.3943C28.0096 25.5229 25.2206 27.0748 22.9493 29.4143C20.7016 31.7421 20.3368 34.1287 21.8666 36.9738C22.3491 37.8673 22.9258 38.7138 23.42 39.5955C24.0084 40.6654 23.8084 41.1356 22.5963 41.3002C20.3956 41.6177 18.2067 41.3825 16.0532 40.8535C7.08579 38.6315 0.895728 31.2484 0.23671 22.0194C-0.6106 9.98072 9.20407 -0.447353 21.29 0.0111529C31.0576 0.387363 40.5545 2.39774 49.6396 6.06579C51.4989 6.81821 53.2406 7.95859 54.8764 9.15776C56.4298 10.2864 56.7711 11.8383 56.1591 13.1903C56.0885 13.3549 55.9591 13.5077 55.8179 13.7193Z" fill="#99D9D9"/>
</g>
</svg>
