<svg width="112" height="113" viewBox="0 0 112 113" fill="none" xmlns="http://www.w3.org/2000/svg">
<g id="tactic_24dp_FILL0_wght200_GRAD0_opsz24 1">
<path id="Vector" d="M75.187 93.8333L71.974 90.6203L79.324 83.1537L71.974 75.8037L75.187 72.474L82.6536 79.9407L90.0036 72.474L93.3333 75.8037L85.8666 83.1537L93.3333 90.6203L90.0036 93.8333L82.6536 86.4833L75.187 93.8333ZM30.3333 89.1667C32.2536 89.1667 33.9006 88.4803 35.2741 87.1075C36.6469 85.7339 37.3333 84.087 37.3333 82.1667C37.3333 80.2463 36.6469 78.5994 35.2741 77.2258C33.9006 75.8531 32.2536 75.1667 30.3333 75.1667C28.413 75.1667 26.766 75.8531 25.3925 77.2258C24.0197 78.5994 23.3333 80.2463 23.3333 82.1667C23.3333 84.087 24.0197 85.7339 25.3925 87.1075C26.766 88.4803 28.413 89.1667 30.3333 89.1667ZM30.3333 93.8333C27.1024 93.8333 24.3502 92.6966 22.0768 90.4232C19.8033 88.1497 18.6666 85.3976 18.6666 82.1667C18.6666 78.9358 19.8033 76.1836 22.0768 73.9102C24.3502 71.6367 27.1024 70.5 30.3333 70.5C33.0913 70.5 35.5366 71.3571 37.6693 73.0713C39.8027 74.7856 41.1444 77.0038 41.6943 79.726C45.3265 79.4087 48.3793 77.9157 50.8526 75.2472C53.3267 72.5786 54.5638 69.4407 54.5638 65.8333V48.513C54.5638 42.7154 56.6144 37.7661 60.7156 33.6648C64.8168 29.5636 69.7662 27.513 75.5638 27.513H84.3406L74.6573 17.8297L77.987 14.5L93.3333 29.8463L77.987 45.1927L74.6573 41.9797L84.2508 32.1797H75.5638C71.0169 32.1797 67.158 33.7652 63.987 36.9362C60.816 40.1072 59.2305 43.9661 59.2305 48.513V65.8333C59.2305 70.7333 57.5372 74.9528 54.1508 78.4917C50.7651 82.0306 46.6312 84.0065 41.7491 84.4195C41.2342 87.1775 39.9015 89.4358 37.751 91.1943C35.5996 92.9537 33.1271 93.8333 30.3333 93.8333ZM21.8796 40.526L18.6666 37.313L26.0166 29.8463L18.6666 22.4963L21.8796 19.1667L29.3463 26.6333L36.6963 19.1667L40.026 22.4963L32.5593 29.8463L40.026 37.313L36.6963 40.526L29.3463 33.176L21.8796 40.526Z" fill="#7B84EB"/>
</g>
</svg>
