<svg width="205" height="76" viewBox="0 0 205 76" fill="none" xmlns="http://www.w3.org/2000/svg">
<g id="Group 84">
<path id="Vector" d="M58.1851 24.5103C59.4466 25.3565 60.6293 26.3028 61.7204 27.3388C65.3088 30.7293 67.9756 34.6854 69.3172 39.3074C72.3591 49.7712 70.0919 59.1305 62.2709 67.1352C57.7039 71.8071 51.9544 74.5434 45.3241 75.6209C42.4075 76.0561 39.442 76.117 36.5082 75.8018C31.5881 75.3612 26.7987 74.0559 22.3872 71.9534C17.2065 69.4835 12.6557 65.9816 9.04907 61.6897C8.95732 61.59 8.89167 61.4714 8.85742 61.3433C9.0083 61.4511 9.15917 61.5588 9.30597 61.6743C13.9347 65.4231 19.6132 67.8288 25.6575 68.6014C35.8517 69.8906 44.8959 67.2968 52.5457 60.7584C57.8348 56.2645 61.3777 50.2289 62.6094 43.6137C63.3637 39.8192 63.5105 36.0131 62.3566 32.2417C61.5572 29.5913 60.2285 27.1094 58.442 24.9297C58.3849 24.8566 58.3197 24.7873 58.2626 24.7104C58.2299 24.6462 58.204 24.5792 58.1851 24.5103Z" fill="#443B62"/>
<path id="Vector_2" d="M71.9206 14.5433C68.7836 12.0081 65.171 10.0501 61.2698 8.77072C56.904 7.35065 52.2698 6.81655 47.6702 7.20339C43.0707 7.59022 38.6096 8.88927 34.5787 11.0155C30.5478 13.1418 27.0381 16.0473 24.2791 19.5421C21.5201 23.0368 19.5741 27.0419 18.5683 31.2954C18.0207 33.529 17.747 35.8146 17.7528 38.1071C17.7548 42.6921 19.3426 47.1512 22.2749 50.8068C22.4308 50.9469 22.5471 51.1215 22.6134 51.3148C22.4747 51.3879 22.4095 51.2686 22.3361 51.2148C16.0687 46.6544 12.0644 40.7433 10.7881 33.3582C9.10402 23.6217 12.0114 15.1552 19.3716 8.15883C23.7781 3.96625 29.5076 1.23694 35.6986 0.381201C41.3748 -0.461599 46.9449 0.138751 52.3926 1.73199C59.9706 3.92892 66.6772 8.21833 71.6474 14.0469C71.7494 14.1662 71.8391 14.2932 71.937 14.4317C71.9459 14.4498 71.9491 14.47 71.9462 14.4898C71.9433 14.5096 71.9344 14.5282 71.9206 14.5433Z" fill="#443B62"/>
<path id="Vector_3" d="M26.4046 20.9628C29.3254 17.2616 33.1594 14.2892 37.5738 12.3041C41.9882 10.3189 46.8494 9.3809 51.7351 9.57157C58.6583 9.83497 65.2744 12.3389 70.4722 16.6628C75.6701 20.9867 79.1328 26.8671 80.2789 33.3162C80.7732 36.2449 80.8254 39.225 80.4338 42.1676C79.8598 47.1232 78.2515 51.9226 75.7019 56.2886C73.1523 60.6546 69.7117 64.5009 65.5789 67.6055C65.536 67.655 65.4818 67.6945 65.4203 67.7212C65.3589 67.7479 65.2917 67.761 65.2241 67.7594C65.3546 67.6017 65.4606 67.467 65.5748 67.3361C69.5665 62.9056 72.1043 57.4736 72.8779 51.7039C74.1746 42.0098 71.3121 33.5009 64.2862 26.3352C59.5029 21.4326 53.1228 18.1768 46.1569 17.0837C43.7883 16.6523 41.3728 16.4946 38.9639 16.6142C34.6185 16.8742 30.4472 18.3224 26.9592 20.782C26.8165 20.882 26.6697 20.9782 26.5229 21.0745C26.4209 21.086 26.3801 21.0591 26.4046 20.9628Z" fill="#443B62"/>
<path id="Vector_4" d="M15.5744 8.34372C14.4068 9.64493 13.3475 11.0293 12.406 12.4846C9.94295 16.288 8.41054 20.5623 7.92057 24.9958C6.92154 34.2319 9.65358 42.3405 16.2146 49.2407C21.0632 54.3976 27.6449 57.8221 34.8536 58.9387C38.7764 59.5929 42.6869 59.7084 46.5688 58.6578C49.2552 57.9419 51.7801 56.768 54.0187 55.1942C54.1671 55.0545 54.3449 54.9457 54.5407 54.8748C54.6467 54.9864 54.5407 55.048 54.4795 55.1057C49.7535 60.8783 43.6288 64.6189 35.9954 65.9428C27.2447 67.4552 19.2443 65.7273 12.1328 60.6474C6.01095 56.3866 1.90188 50.0314 0.686772 42.9447C-0.536531 36.2331 0.564442 29.7447 3.27202 23.491C5.81332 17.6367 9.88946 12.488 15.1177 8.52844C15.171 8.46372 15.2409 8.41282 15.3208 8.38052C15.4007 8.34821 15.4879 8.33555 15.5744 8.34372Z" fill="#EAAB34"/>
<path id="Vector_5" d="M182.813 20.632H192.6C192.274 20.7744 192.058 20.8629 191.85 20.9591C191.265 21.2033 190.77 21.6041 190.425 22.1118C190.08 22.6194 189.9 23.2115 189.909 23.8146C189.729 28.6597 189.843 33.5087 189.819 38.3539C189.819 41.5557 189.819 44.7538 189.847 47.9556C189.847 49.3834 189.9 50.8112 190.055 52.2389C190.194 53.5589 190.985 54.3902 192.184 54.952C192.343 55.0252 192.506 55.0906 192.686 55.1676C192.596 55.2869 192.474 55.233 192.38 55.233C190.341 55.233 188.269 55.233 186.214 55.233C185.827 55.233 185.721 55.1137 185.672 54.775C185.574 53.8108 185.538 52.8417 185.566 51.8733C185.541 50.1377 185.603 48.4098 185.647 46.6626C185.713 44.2496 185.717 41.8328 185.729 39.4199C185.729 39.0658 185.643 38.9619 185.252 38.9619C179.709 38.9619 174.165 38.9619 168.619 38.9619C168.211 38.9619 168.142 39.0697 168.146 39.4199C168.175 42.8527 168.179 46.2816 168.215 49.7144C168.215 50.6033 168.297 51.4962 168.399 52.3813C168.546 53.632 169.373 54.4171 170.523 54.9482C170.691 55.0086 170.843 55.1032 170.968 55.2253H168.207C166.984 55.2253 165.793 55.1983 164.59 55.2253C164.109 55.2253 164.015 55.0444 163.979 54.6788C163.898 53.7586 163.868 52.835 163.889 51.9118C163.922 48.8818 163.966 45.8518 164.024 42.8219C164.105 38.2846 164.068 33.7473 164.024 29.2062C164.024 27.3167 164.06 25.4232 163.905 23.5337C163.787 22.079 162.914 21.2246 161.499 20.7782C161.345 20.7405 161.197 20.6836 161.059 20.6089H170.809C170.837 20.6512 170.809 20.682 170.76 20.6974C168.937 21.2862 168.203 22.5369 168.215 24.3072C168.236 26.6162 168.183 28.9522 168.171 31.2767C168.171 33.2009 168.171 35.152 168.171 37.0916C168.171 37.4149 168.26 37.5034 168.603 37.4995C174.176 37.4995 179.748 37.4995 185.321 37.4995C185.68 37.4995 185.729 37.3841 185.729 37.0801C185.709 33.0469 185.705 29.0176 185.688 24.9845C185.688 24.4611 185.652 23.9416 185.607 23.4182C185.547 22.8006 185.287 22.2155 184.861 21.743C184.435 21.2704 183.866 20.9335 183.229 20.7782L182.781 20.6512L182.813 20.632Z" fill="#443B62"/>
<path id="Vector_6" d="M159.602 28.3752C159.337 28.2866 159.349 28.1096 159.296 27.9903C158.635 26.347 157.779 24.8077 156.27 23.7186C155.194 22.9129 153.92 22.3769 152.565 22.1602C151.211 21.9436 149.82 22.0534 148.523 22.4794C146.288 23.1375 144.996 25.0463 144.926 27.4169C144.869 29.5874 145.929 31.2422 147.577 32.6392C149.11 33.9399 150.88 34.9251 152.609 35.9642C154.3 36.9221 155.894 38.0248 157.371 39.2584C160.303 41.833 161.233 44.9849 160.332 48.6101C159.431 52.2353 156.943 54.3827 153.249 55.3448C149.424 56.3223 145.701 56.0375 142.239 54.044C140.956 53.25 139.813 52.2693 138.855 51.1385C138.647 50.9114 138.704 50.8075 138.895 50.6189C139.087 50.4304 139.205 50.4611 139.405 50.6189C140.85 51.8358 142.565 52.7325 144.425 53.2435C146.558 53.8449 148.822 53.9007 150.986 53.4052C154.692 52.4892 156.107 49.6299 155.822 46.5127C155.618 44.296 154.223 42.7374 152.474 41.4097C150.619 39.9973 148.515 38.9275 146.533 37.696C144.913 36.7495 143.449 35.5824 142.19 34.2324C138.899 30.4956 139.931 23.2221 145.978 20.9785C148.233 20.1434 150.562 19.9856 152.939 20.1126C154.975 20.1881 156.99 20.538 158.921 21.1517C159.067 21.178 159.198 21.2559 159.285 21.3695C159.373 21.4831 159.412 21.624 159.394 21.7636C159.439 23.7917 159.524 25.8198 159.598 27.8441C159.606 28.0134 159.602 28.1635 159.602 28.3752Z" fill="#443B62"/>
<path id="Vector_7" d="M121.553 22.5446H120.016C116.444 22.5446 112.872 22.5446 109.304 22.5715C108.278 22.5957 107.255 22.6819 106.241 22.8293C105.413 22.9215 104.616 23.184 103.906 23.5982C103.197 24.0124 102.592 24.5684 102.135 25.2269C101.625 25.9196 101.103 26.6008 100.504 27.3705C100.501 26.8148 100.558 26.2602 100.675 25.7156C100.904 24.1763 101.156 22.6369 101.373 21.0976C101.426 20.7127 101.678 20.7781 101.927 20.7781H121.643H125.749C125.912 20.7781 126.075 20.7781 126.238 20.7781C126.964 20.8205 127.119 21.1053 126.728 21.7056C126.336 22.306 125.949 22.8601 125.557 23.4566C119.38 32.6582 113.055 41.7712 106.698 50.8611L105.067 53.1932C105.143 53.2102 105.221 53.2218 105.299 53.2279C109.377 53.2279 113.418 53.3164 117.475 53.1663C120.004 53.125 122.508 52.6987 124.893 51.904C125.801 51.6053 126.649 51.1629 127.4 50.5956C127.69 50.3685 127.808 50.5148 127.988 50.6687C128.261 50.8842 128.053 51.0035 127.926 51.1459C126.116 53.112 123.662 54.4515 120.954 54.952C118.845 55.3868 116.709 55.3368 114.576 55.2983C111.314 55.2098 108.052 55.1367 104.79 55.1213L100.386 55.0982C99.5254 55.0982 99.3419 54.8173 99.8068 54.1169C100.504 53.0624 101.238 52.0272 101.968 50.992C107.991 42.4293 114.026 33.8704 119.8 25.1538C120.395 24.3187 120.95 23.4682 121.553 22.5446Z" fill="#443B62"/>
<path id="Vector_8" d="M128.215 20.6348H138.168C137.814 20.7849 137.561 20.8772 137.324 20.9927C136.799 21.2268 136.351 21.5923 136.03 22.0496C135.708 22.5068 135.526 23.0383 135.502 23.5865C135.367 25.2798 135.404 26.9692 135.396 28.6587C135.374 34.0465 135.374 39.4342 135.396 44.822C135.396 47.2041 135.396 49.5863 135.587 51.9685C135.706 53.5078 136.529 54.4314 137.924 55.0472C138.038 55.0916 138.148 55.1471 138.25 55.2127C136.656 55.2704 135.061 55.3089 133.512 54.9048C131.55 54.3968 130.975 53.6002 131.065 51.7068C131.151 49.6017 131.224 47.4966 131.257 45.3915C131.359 39.5035 131.302 33.6077 131.293 27.7158C131.293 26.3073 131.293 24.8911 131.167 23.4826C131.037 22.1318 130.213 21.3121 128.9 20.8695C128.7 20.781 128.525 20.7233 128.215 20.6348Z" fill="#443B62"/>
<path id="Vector_9" d="M194.746 20.6309H204.737C204.398 20.7771 204.166 20.8695 203.941 20.9734C203.37 21.2149 202.887 21.6098 202.552 22.1086C202.217 22.6075 202.045 23.1884 202.058 23.7789C201.854 31.7912 201.992 39.8075 201.98 47.8237C201.98 49.2207 202.066 50.6176 202.16 52.0146C202.184 52.6489 202.4 53.2635 202.782 53.7857C203.164 54.308 203.697 54.7163 204.317 54.9625C204.494 55.0304 204.661 55.1224 204.81 55.2357C204.096 55.2357 203.383 55.2357 202.673 55.2357C201.58 55.2329 200.496 55.0573 199.464 54.7162C198.07 54.2043 197.572 53.4231 197.637 52.0223C197.719 50.1943 197.76 48.3663 197.801 46.5383C197.931 40.3385 197.841 34.1349 197.858 27.9351C197.858 26.5228 197.809 25.1066 197.76 23.7019C197.711 22.2972 196.838 21.2812 195.358 20.8348L194.746 20.6309Z" fill="#443B62"/>
</g>
</svg>
